# xmcd
#
# Track frame offsets:
#	150
#	12900
#	25762
#	40275
#	50375
#	64875
#	88125
#	107100
#	119625
#	132525
#	143325
#	156375
#	171150
#	185420
#	201345
#	216445
#	234968
#	245858
#	258000
#	270770
#	283215
#	298840
#	315678
#	333525
#
# Disc length: 4609 seconds
#
# Revision: 0
# Processed by: cddbd v1.5.2PL0 Copyright (c) Steve Scherf et al.
# Submitted via: audiograbber 1.83.01
#
DISCID=7311ff18
DTITLE=J.J.Cale - 5+Number 10
DYEAR=1975
DGENRE=Blues
TTITLE0=Thirteen Days
TTITLE1=Boilin' Pot
TTITLE2=I'll Make Love To You Anytime
TTITLE3=Don't Cry Sister
TTITLE4=Too Much For Me
TTITLE5=Sensitive Kind
TTITLE6=Friday
TTITLE7=Lou-Easy-Ann
TTITLE8=Let's Go To Tahiti
TTITLE9=Katy Kool Lady
TTITLE10=Fate Of A Fool
TTITLE11=Mona
TTITLE12=Lonesome Train
TTITLE13=Digital Blues
TTITLE14=Feeling In Love
TTITLE15=Artificial Paradise
TTITLE16=Passion
TTITLE17=Take Out Some Insurance
TTITLE18=Jailer
TTITLE19=Low Rider
TTITLE20=Traces
TTITLE21=She's In Love
TTITLE22=Shady Grove
TTITLE23=Roll On Mama
EXTD=
EXTT0=
EXTT1=
EXTT2=
EXTT3=
EXTT4=
EXTT5=
EXTT6=
EXTT7=
EXTT8=
EXTT9=
EXTT10=
EXTT11=
EXTT12=
EXTT13=
EXTT14=
EXTT15=
EXTT16=
EXTT17=
EXTT18=
EXTT19=
EXTT20=
EXTT21=
EXTT22=
EXTT23=
PLAYORDER=
